<?xml version="1.0" encoding="utf-8"?>
<!-- Generator: Adobe Illustrator 19.2.1, SVG Export Plug-In . SVG Version: 6.00 Build 0)  -->
<svg version="1.1" id="Layer_1" xmlns="http://www.w3.org/2000/svg" xmlns:xlink="http://www.w3.org/1999/xlink" x="0px" y="0px"
	 viewBox="0 0 19 19" style="enable-background:new 0 0 19 19;" xml:space="preserve">
<style type="text/css">
	.st0{fill:#FFFFFF;}
</style>
<title>search copy</title>
<desc>Created with Sketch.</desc>
<g id="Page-1">
	<g id="home-copy-12" transform="translate(-627.000000, -1652.000000)">
		<path id="search-copy" class="st0" d="M645.1,1669.7l-4.8-4.8c1-1.3,1.6-2.9,1.6-4.6c0-2-0.8-3.9-2.2-5.3s-3.3-2.2-5.3-2.2
			s-3.9,0.8-5.3,2.2c-1.4,1.4-2.2,3.3-2.2,5.3s0.8,3.9,2.2,5.3s3.3,2.2,5.3,2.2c1.7,0,3.3-0.6,4.6-1.6l4.8,4.8L645.1,1669.7z
			 M630.5,1664.3c-1.1-1.1-1.6-2.5-1.6-4s0.6-2.9,1.7-4c1.1-1.1,2.5-1.6,4-1.6s2.9,0.6,4,1.6c1.1,1.1,1.6,2.5,1.6,4s-0.6,2.9-1.6,4
			c-1.1,1.1-2.5,1.7-4,1.7S631.5,1665.4,630.5,1664.3L630.5,1664.3z"/>
	</g>
</g>
</svg>
